<!-- Generated by IcoMoon.io -->
<svg version="1.1" xmlns="http://www.w3.org/2000/svg" width="768" height="768" viewBox="0 0 768 768">
<title></title>
<g id="icomoon-ignore">
</g>
<path d="M406.624 585.376l-169.376-169.376h370.752c17.664 0 32-14.336 32-32s-14.336-32-32-32h-370.752l169.376-169.376c12.512-12.512 12.512-32.768 0-45.248s-32.768-12.512-45.248 0l-224 224c-3.072 3.072-5.376 6.592-6.944 10.368-1.632 3.904-2.432 8.096-2.432 12.256 0 8.192 3.136 16.384 9.376 22.624l224 224c12.512 12.512 32.768 12.512 45.248 0s12.512-32.768 0-45.248z"></path>
</svg>
