<!-- Generated by IcoMoon.io -->
<svg version="1.1" xmlns="http://www.w3.org/2000/svg" width="768" height="768" viewBox="0 0 768 768">
<title></title>
<g id="icomoon-ignore">
</g>
<path d="M768 608v-352c0-26.496-10.784-50.56-28.128-67.872s-41.376-28.128-67.872-28.128h-110.88l-54.496-81.76c-5.824-8.64-15.552-14.24-26.624-14.24h-192c-10.432 0.064-20.48 5.056-26.624 14.24l-54.496 81.76h-110.88c-26.496 0-50.56 10.784-67.872 28.128s-28.128 41.376-28.128 67.872v352c0 26.496 10.784 50.56 28.128 67.872s41.376 28.128 67.872 28.128h576c26.496 0 50.56-10.784 67.872-28.128s28.128-41.376 28.128-67.872zM704 608c0 8.832-3.552 16.8-9.376 22.624s-13.792 9.376-22.624 9.376h-576c-8.832 0-16.8-3.552-22.624-9.376s-9.376-13.792-9.376-22.624v-352c0-8.832 3.552-16.8 9.376-22.624s13.792-9.376 22.624-9.376h128c11.072 0 20.8-5.6 26.624-14.24l54.496-81.76h157.76l54.496 81.76c6.144 9.184 16.192 14.176 26.624 14.24h128c8.832 0 16.8 3.552 22.624 9.376s9.376 13.792 9.376 22.624zM544 416c0-44.16-17.952-84.224-46.848-113.152s-68.992-46.848-113.152-46.848-84.224 17.952-113.152 46.848-46.848 68.992-46.848 113.152 17.952 84.224 46.848 113.152 68.992 46.848 113.152 46.848 84.224-17.952 113.152-46.848 46.848-68.992 46.848-113.152zM480 416c0 26.528-10.72 50.464-28.128 67.872s-41.344 28.128-67.872 28.128-50.464-10.72-67.872-28.128-28.128-41.344-28.128-67.872 10.72-50.464 28.128-67.872 41.344-28.128 67.872-28.128 50.464 10.72 67.872 28.128 28.128 41.344 28.128 67.872z"></path>
</svg>
